<svg width="40" height="40" viewBox="0 0 40 40" fill="none" xmlns="http://www.w3.org/2000/svg">
<path d="M20.2741 0.0018498C9.34585 -0.146291 0.244853 8.62226 0.00498192 19.5494C-0.143174 26.2722 3.02454 32.2543 7.98423 35.9861C9.24708 36.9384 10.002 38.4128 10.002 39.9929H13.0004V38.7302V35.4852V19.1121C14.8558 19.4013 16.5914 20.2126 18.0024 21.4612C16.5138 23.5775 15.6954 26.1029 15.6672 28.713C15.646 31.0551 17.4591 33.0515 19.8014 33.1643C22.2777 33.2772 24.3378 31.2949 24.3378 28.833C24.3378 26.1805 23.5124 23.6128 22.0026 21.4612C23.4136 20.2126 25.1491 19.4013 27.0046 19.1121V35.4923V38.7373V40H30.003C30.003 38.4269 30.7508 36.9455 32.0066 36.0002C36.8605 32.3531 40 26.5474 40 20.008C39.9929 9.04552 31.1883 0.149991 20.2741 0.0018498ZM19.999 30.1662C19.2652 30.1662 18.6656 29.5666 18.6656 28.833C18.6656 27.0835 19.1312 25.3834 19.999 23.8879C20.8667 25.3763 21.3324 27.0835 21.3324 28.833C21.3324 29.5666 20.7327 30.1662 19.999 30.1662ZM29.996 33.7428V16.0011H28.5003C25.389 16.0011 22.3977 17.1369 20.0766 19.1615L20.006 19.0768L19.9284 19.1615C17.6073 17.1369 14.616 16.0011 11.5047 16.0011H10.009V33.7428C5.76895 30.653 3.01043 25.6444 3.01043 20.0009C3.01043 10.6116 10.6228 3.007 20.0131 3.007C29.4033 3.007 37.0087 10.6186 37.0087 20.0009C36.9946 25.6515 34.236 30.653 29.996 33.7428Z" fill="#FBC400"/>
<path d="M6.13586 14.2586C5.40214 16.0293 5 17.9692 5 20.0009H6.70026C7.03185 18.2937 7.61742 16.6853 8.41464 15.2039L6.13586 14.2586Z" fill="#FBC400"/>
<path d="M19.9987 6.70342V5.00332C14.7991 5.00332 10.2204 7.6487 7.52539 11.6697L9.74067 13.1511C12.1888 9.86376 15.8221 7.51467 19.9987 6.70342Z" fill="#FBC400"/>
</svg>
