<svg width="400" height="464" viewBox="0 0 400 464" fill="none" xmlns="http://www.w3.org/2000/svg">
<g clip-path="url(#clip0_4614_901)">
<path d="M0.547852 195.285C2.98755 86.3748 93.7081 -0.934836 202.722 0.517578C311.642 2.01784 399.453 90.6394 399.5 199.88C399.5 264.558 368.655 321.995 320.889 358.41L319.758 359.266C307.03 368.803 299.525 383.75 299.524 399.646L299.5 789.5H270.521V190.416L269.945 190.505C251.323 193.385 233.836 201.555 219.656 214.068L219.32 214.364L219.578 214.73C234.615 236.118 242.812 261.671 242.812 288.065C242.811 311.927 223.127 331.29 199.146 330.826L198.001 330.789C174.909 329.721 156.957 309.987 157.189 286.848V286.847C157.424 260.874 165.574 235.744 180.422 214.686L180.681 214.319L180.345 214.022C166.165 201.509 148.678 193.34 130.056 190.459L129.479 190.37V789.5H100.499V399.506C100.499 383.855 93.1119 369.128 80.7432 359.531L80.1504 359.078L78.9932 358.202C30.17 320.981 -0.894783 261.731 0.547852 195.285ZM200.001 29.4922C105.862 29.4924 29.55 105.733 29.5498 199.785C29.5499 256.424 57.1889 306.56 99.7295 337.518L100.523 338.096V160.352H115.024C145.987 160.352 175.779 171.629 198.919 191.753L199.292 192.077L199.621 191.708L200 191.281L200.379 191.708L200.708 192.077L201.081 191.753C224.221 171.629 253.967 160.352 284.977 160.352H299.477V338.097L300.271 337.518C342.812 306.514 370.451 256.377 370.451 199.785C370.451 105.733 294.139 29.4928 200.001 29.4922ZM199.569 238.388C190.825 253.357 186.146 270.451 186.146 288.018C186.146 295.671 192.391 301.859 200.001 301.859H200.002C207.616 301.859 213.807 295.62 213.855 288.021V288.018C213.855 270.452 209.177 253.357 200.434 238.388L200.001 237.649L199.569 238.388Z" fill="#F5F5F5" stroke="#F5F5F5"/>
<path d="M83.4453 152.156C75.6457 166.748 69.8954 182.563 66.5928 199.333H50.5029C50.5678 179.46 54.4993 160.476 61.6309 143.116L83.4453 152.156Z" fill="#F5F5F5" stroke="#F5F5F5"/>
<path d="M199.49 66.5661C157.931 74.7367 121.766 98.0806 97.2949 130.717L75.9521 116.459C102.763 76.7785 148.054 50.6602 199.49 50.4919V66.5661Z" fill="#F5F5F5" stroke="#F5F5F5"/>
</g>
<defs>
<clipPath id="clip0_4614_901">
<rect width="400" height="464" fill="white"/>
</clipPath>
</defs>
</svg>
