<svg width="1240" height="172" viewBox="0 0 1240 172" fill="none" xmlns="http://www.w3.org/2000/svg">
<path d="M0 169.914V1.48335H38.6048C66.8748 1.48335 80.9825 17.9638 80.9825 50.9247C80.9825 60.868 79.4514 69.273 76.3893 76.2497C73.3272 83.1715 67.9684 88.7749 60.2584 93.0598L86.1772 169.969H60.7505L38.386 98.0039H24.0049V169.914H0ZM24.0049 24.1715V76.6892H37.6752C41.8856 76.6892 45.2758 76.0849 47.7912 74.9313C50.3065 73.7227 52.275 72.0747 53.6967 69.8223C54.9544 67.6249 55.8293 64.8782 56.2667 61.637C56.7588 58.3959 56.9776 54.6603 56.9776 50.3754C56.9776 46.0905 56.7588 42.3549 56.2667 39.1137C55.7746 35.8726 54.845 33.0709 53.4233 30.7087C50.4705 26.4238 44.8384 24.1715 36.5269 24.1715H24.0049Z" fill="#82BBBF"/>
<path d="M158.52 1.48335H134.515V169.914H158.52V1.48335Z" fill="#82BBBF"/>
<path d="M289.317 49.9908H265.312V44.5522C265.312 39.0588 264 34.2794 261.43 30.2142C258.86 26.204 254.485 24.1714 248.361 24.1714C245.08 24.1714 242.401 24.7757 240.377 26.0392C238.354 27.3027 236.659 28.8958 235.456 30.7636C234.198 32.7962 233.324 35.1584 232.886 37.7403C232.394 40.3223 232.175 43.069 232.175 45.9256C232.175 49.2217 232.285 52.0234 232.503 54.2208C232.722 56.4182 233.324 58.3958 234.253 60.1537C235.183 61.9117 236.55 63.3949 238.354 64.6584C240.159 65.9219 242.619 67.1854 245.791 68.4489L264.164 75.7552C269.468 77.7878 273.842 80.205 277.123 82.9517C280.404 85.6985 283.028 88.8847 284.888 92.5104C286.637 96.3009 287.786 100.586 288.442 105.42C289.043 110.254 289.371 115.693 289.371 121.846C289.371 128.932 288.661 135.524 287.239 141.622C285.817 147.665 283.575 152.829 280.404 157.114C277.123 161.509 272.803 165.024 267.444 167.496C262.086 170.023 255.579 171.287 247.923 171.287C242.127 171.287 236.714 170.243 231.683 168.211C226.652 166.178 222.333 163.321 218.724 159.696C215.115 156.07 212.271 151.84 210.139 147.061C208.006 142.226 206.967 137.008 206.967 131.349V122.34H230.972V129.921C230.972 134.371 232.285 138.326 234.855 141.897C237.425 145.468 241.799 147.226 247.923 147.226C252.024 147.226 255.196 146.621 257.438 145.468C259.734 144.259 261.484 142.611 262.742 140.359C264 138.161 264.765 135.524 264.984 132.448C265.202 129.372 265.367 125.966 265.367 122.175C265.367 117.78 265.202 114.155 264.874 111.298C264.546 108.441 263.945 106.189 262.961 104.431C261.867 102.673 260.391 101.3 258.586 100.146C256.782 99.0476 254.376 97.8391 251.423 96.5756L234.253 89.489C223.864 85.259 216.919 79.6007 213.42 72.569C209.865 65.5374 208.116 56.7478 208.116 46.2003C208.116 39.8828 208.99 33.8949 210.686 28.2366C212.435 22.5783 215.005 17.6891 218.45 13.569C221.731 9.44886 225.942 6.2077 231.027 3.73563C236.112 1.26356 242.237 0.0549927 249.29 0.0549927C255.251 0.0549927 260.719 1.15369 265.64 3.35109C270.561 5.54848 274.881 8.46003 278.49 12.0857C285.708 19.6667 289.317 28.3465 289.317 38.1249V49.9908Z" fill="#82BBBF"/>
<path d="M337.655 169.914V1.48335H361.66V78.3922H362.152L397.257 1.48335H421.262L388.508 68.8884L427.386 169.914H401.96L374.619 95.1473L361.66 119.538V169.914H337.655Z" fill="#82BBBF"/>
<path d="M475.724 169.914V1.48335H498.799L529.64 90.6976H530.132L560.753 1.48335H584.047V169.914H560.042V67.5151H559.55L535.764 139.864H523.789L500.221 67.5151H499.729V169.914H475.724Z" fill="#82BBBF"/>
<path d="M632.385 169.914L669.842 1.48335H689.855L727.311 169.914H703.306L696.253 133.712H663.499L656.445 169.914H632.385ZM691.769 111.023L680.012 49.9908H679.52L667.764 111.023H691.769Z" fill="#82BBBF"/>
<path d="M775.649 169.914V1.48335H798.725L834.978 103.003H835.47V1.48335H859.475V169.914H836.892L800.146 68.6687H799.654V169.914H775.649Z" fill="#82BBBF"/>
<path d="M985.515 121.9V132.338C985.515 137.557 984.53 142.501 982.562 147.116C980.593 151.785 977.914 155.905 974.414 159.531C970.969 163.157 966.923 166.013 962.275 168.156C957.627 170.298 952.651 171.342 947.293 171.342C942.754 171.342 938.106 170.683 933.404 169.474C928.701 168.211 924.436 166.013 920.663 162.827C916.89 159.696 913.773 155.63 911.367 150.631C908.907 145.687 907.704 139.315 907.704 131.569V38.839C907.704 33.3455 908.633 28.1816 910.547 23.4572C912.406 18.7328 915.086 14.6127 918.53 11.1518C921.975 7.69088 926.131 4.94414 930.888 2.96648C935.7 0.988827 941.004 0 946.8 0C958.119 0 967.306 3.73557 974.36 11.0968C977.805 14.7225 980.539 19.0075 982.507 24.0065C984.476 28.9507 985.46 34.3892 985.46 40.2123V49.6611H961.455V41.6956C961.455 36.9712 960.143 32.8511 957.463 29.3902C954.784 25.9293 951.175 24.1713 946.636 24.1713C940.676 24.1713 936.685 26.0391 934.771 29.7198C932.802 33.4553 931.818 38.1248 931.818 43.7831V129.921C931.818 134.81 932.857 138.93 934.989 142.226C937.122 145.522 940.895 147.171 946.418 147.171C948.003 147.171 949.699 146.896 951.503 146.346C953.307 145.797 955.003 144.918 956.588 143.655C958.01 142.391 959.158 140.688 960.143 138.436C961.072 136.238 961.564 133.492 961.564 130.141V121.846H985.515V121.9Z" fill="#82BBBF"/>
<path d="M1033.91 169.914V1.48335H1105.48V24.1715H1057.91V73.6128H1099.36V96.3559H1057.91V145.797H1105.48V169.914H1033.91Z" fill="#82BBBF"/>
<path d="M1153.82 169.914V1.48335H1192.43C1220.7 1.48335 1234.81 17.9638 1234.81 50.9247C1234.81 60.868 1233.27 69.273 1230.21 76.2497C1227.15 83.1715 1221.79 88.7749 1214.08 93.0598L1240 169.969H1214.57L1192.21 98.0589H1177.83V169.969H1153.82V169.914ZM1177.83 24.1715V76.6892H1191.5C1195.71 76.6892 1199.1 76.0849 1201.61 74.9313C1204.13 73.7227 1206.1 72.0747 1207.52 69.8223C1208.78 67.6249 1209.65 64.8782 1210.09 61.637C1210.58 58.3959 1210.8 54.6603 1210.8 50.3754C1210.8 46.0905 1210.58 42.3549 1210.09 39.1137C1209.6 35.8726 1208.67 33.0709 1207.25 30.7087C1204.24 26.3139 1198.61 24.0616 1190.29 24.0616H1177.83V24.1715Z" fill="#82BBBF"/>
</svg>
