<svg xmlns="http://www.w3.org/2000/svg" width="560" height="160" viewBox="0 0 560 160">
  <g id="Group_3" data-name="Group 3" transform="translate(-701 -462)">
    <g id="Group_1" data-name="Group 1" transform="translate(696.095 1208.592)">
      <path id="Path_1" data-name="Path 1" d="M264.071-619.062a50.531,50.531,0,0,0-27.361,27.4,50.224,50.224,0,0,0-27.424-27.405,50.536,50.536,0,0,0,27.361-27.4,50.228,50.228,0,0,0,27.424,27.406" transform="translate(1.826 1.397)" fill="#fbc400"/>
      <path id="Path_2" data-name="Path 2" d="M252.951-705.488a50.249,50.249,0,0,0-16.269,21.051A50.257,50.257,0,0,0,220.43-705.47a12.579,12.579,0,0,1-5.045-10.044,12.546,12.546,0,0,1,5.021-10.027,50.256,50.256,0,0,0,16.269-21.051,50.259,50.259,0,0,0,16.252,21.033,12.577,12.577,0,0,1,5.045,10.045,12.545,12.545,0,0,1-5.021,10.026" transform="translate(1.838)" fill="#009299"/>
      <path id="Path_3" data-name="Path 3" d="M449.452-619.062a50.529,50.529,0,0,0-27.362,27.4,50.221,50.221,0,0,0-27.424-27.405,50.531,50.531,0,0,0,27.361-27.395,50.229,50.229,0,0,0,27.425,27.4" transform="translate(3.652 1.397)" fill="#fbc400"/>
      <path id="Path_4" data-name="Path 4" d="M438.331-705.488a50.249,50.249,0,0,0-16.269,21.051A50.257,50.257,0,0,0,405.81-705.47a12.579,12.579,0,0,1-5.045-10.044,12.546,12.546,0,0,1,5.021-10.027,50.255,50.255,0,0,0,16.269-21.051,50.254,50.254,0,0,0,16.253,21.033,12.579,12.579,0,0,1,5.044,10.045,12.545,12.545,0,0,1-5.021,10.026" transform="translate(3.617)" fill="#009299"/>
      <path id="Path_5" data-name="Path 5" d="M67.57-705.488A50.257,50.257,0,0,0,51.3-684.437,50.257,50.257,0,0,0,35.049-705.47,12.579,12.579,0,0,1,30-715.514a12.544,12.544,0,0,1,5.022-10.027,50.261,50.261,0,0,0,16.268-21.051,50.251,50.251,0,0,0,16.252,21.033,12.577,12.577,0,0,1,5.045,10.045,12.545,12.545,0,0,1-5.021,10.026" fill="#009299"/>
      <path id="Path_6" data-name="Path 6" d="M78.691-619.062a50.531,50.531,0,0,0-27.361,27.4,50.223,50.223,0,0,0-27.425-27.405,50.531,50.531,0,0,0,27.362-27.4,50.229,50.229,0,0,0,27.424,27.406" transform="translate(0 1.397)" fill="#fbc400"/>
      <path id="Path_7" data-name="Path 7" d="M171.381-715.509a50.531,50.531,0,0,0-27.361,27.395,50.222,50.222,0,0,0-27.425-27.4,50.528,50.528,0,0,0,27.362-27.4,50.226,50.226,0,0,0,27.424,27.406" transform="translate(0.913)" fill="#fbc400"/>
      <path id="Path_8" data-name="Path 8" d="M160.261-609.04a50.257,50.257,0,0,0-16.269,21.051,50.257,50.257,0,0,0-16.252-21.033,12.579,12.579,0,0,1-5.045-10.044,12.544,12.544,0,0,1,5.022-10.027,50.261,50.261,0,0,0,16.268-21.051,50.251,50.251,0,0,0,16.252,21.033,12.578,12.578,0,0,1,5.045,10.045,12.545,12.545,0,0,1-5.021,10.026" transform="translate(0.948 1.397)" fill="#009299"/>
      <path id="Path_9" data-name="Path 9" d="M356.761-715.509A50.531,50.531,0,0,0,329.4-688.114a50.222,50.222,0,0,0-27.425-27.4,50.528,50.528,0,0,0,27.362-27.4,50.226,50.226,0,0,0,27.424,27.406" transform="translate(2.739)" fill="#fbc400"/>
      <path id="Path_10" data-name="Path 10" d="M345.641-609.04a50.249,50.249,0,0,0-16.269,21.051,50.257,50.257,0,0,0-16.252-21.033,12.579,12.579,0,0,1-5.045-10.044,12.544,12.544,0,0,1,5.022-10.027,50.261,50.261,0,0,0,16.268-21.051,50.251,50.251,0,0,0,16.252,21.033,12.578,12.578,0,0,1,5.045,10.045,12.545,12.545,0,0,1-5.021,10.026" transform="translate(2.727 1.397)" fill="#009299"/>
      <path id="Path_11" data-name="Path 11" d="M542.143-715.509a50.531,50.531,0,0,0-27.361,27.395,50.222,50.222,0,0,0-27.425-27.4,50.531,50.531,0,0,0,27.362-27.4,50.226,50.226,0,0,0,27.424,27.406" transform="translate(4.565)" fill="#fbc400"/>
      <path id="Path_12" data-name="Path 12" d="M531.022-609.04a50.257,50.257,0,0,0-16.269,21.051A50.257,50.257,0,0,0,498.5-609.022a12.579,12.579,0,0,1-5.045-10.044,12.544,12.544,0,0,1,5.022-10.027,50.261,50.261,0,0,0,16.268-21.051A50.251,50.251,0,0,0,531-629.111a12.578,12.578,0,0,1,5.045,10.045,12.545,12.545,0,0,1-5.021,10.026" transform="translate(4.565 1.397)" fill="#009299"/>
    </g>
    <rect id="Rectangle_1" data-name="Rectangle 1" width="560" height="160" transform="translate(701 462)" fill="none"/>
  </g>
</svg>
