<?xml version="1.0" encoding="utf-8"?>
<!-- Generator: Adobe Illustrator 24.0.2, SVG Export Plug-In . SVG Version: 6.00 Build 0)  -->
<svg version="1.1" id="圖層_1" xmlns="http://www.w3.org/2000/svg" xmlns:xlink="http://www.w3.org/1999/xlink" x="0px" y="0px"
	 viewBox="0 0 656 90" style="enable-background:new 0 0 656 90;" xml:space="preserve">
<style type="text/css">
	.st0{clip-path:url(#SVGID_2_);}
	.st1{fill:#FFFFFF;}
</style>
<g>
	<defs>
		<rect id="SVGID_1_" y="0" width="656" height="90"/>
	</defs>
	<clipPath id="SVGID_2_">
		<use xlink:href="#SVGID_1_"  style="overflow:visible;"/>
	</clipPath>
	<g id="Web_1920_1" class="st0">
		<g id="Group_2" transform="translate(379 171)">
			<g id="Group_1" transform="translate(-671.336 -211.671)">
				<path id="Path_1" class="st1" d="M294.3,129.9V41.4h20.3c14.9,0,22.3,8.7,22.3,26c0.1,4.6-0.7,9.1-2.4,13.3
					c-1.8,3.8-4.7,6.9-8.5,8.8l13.6,40.4h-13.4l-11.7-37.8h-7.6v37.8H294.3z M306.9,53.4V81h7.2c1.8,0.1,3.6-0.2,5.3-0.9
					c1.3-0.6,2.3-1.5,3.1-2.7c0.7-1.3,1.2-2.8,1.3-4.3c0.3-2,0.4-3.9,0.4-5.9c0-2-0.1-4-0.4-5.9c-0.2-1.6-0.7-3.1-1.5-4.4
					c-1.6-2.3-4.5-3.4-8.9-3.4L306.9,53.4z"/>
				<path id="Path_2" class="st1" d="M377.6,41.4H365v88.5h12.6V41.4z"/>
				<path id="Path_3" class="st1" d="M446.3,66.9h-12.6v-2.9c0.1-2.7-0.6-5.3-2-7.5c-1.4-2.1-3.6-3.2-6.9-3.2
					c-1.5-0.1-2.9,0.3-4.2,1c-1,0.6-1.9,1.5-2.6,2.5c-0.7,1.1-1.1,2.4-1.4,3.7c-0.3,1.4-0.4,2.9-0.4,4.3c0,1.7,0.1,3.2,0.2,4.4
					c0.1,1.1,0.4,2.1,0.9,3.1c0.5,1,1.3,1.8,2.2,2.4c1.2,0.8,2.5,1.5,3.9,2l9.7,3.8c2.5,0.9,4.8,2.2,6.8,3.8c1.7,1.4,3.1,3.1,4.1,5
					c1,2.2,1.6,4.4,1.9,6.8c0.3,2.9,0.5,5.7,0.5,8.6c0,3.5-0.4,7-1.1,10.4c-0.6,2.9-1.8,5.7-3.6,8.1c-1.8,2.4-4.1,4.2-6.8,5.5
					c-3.2,1.4-6.7,2.1-10.3,2c-2.9,0-5.8-0.5-8.5-1.6c-2.6-1-4.9-2.5-6.8-4.5c-1.9-1.9-3.4-4.2-4.5-6.6c-1.1-2.6-1.7-5.4-1.7-8.3
					v-4.7h12.6v4c0,2.3,0.7,4.5,2,6.3c1.4,1.9,3.6,2.8,6.9,2.8c1.7,0.1,3.4-0.2,5-0.9c1.2-0.6,2.1-1.5,2.8-2.7
					c0.7-1.3,1.1-2.7,1.2-4.2c0.1-1.6,0.2-3.4,0.2-5.4c0-1.9-0.1-3.8-0.3-5.7c-0.1-1.3-0.4-2.5-1-3.6c-0.6-0.9-1.4-1.7-2.3-2.3
					c-1.2-0.7-2.5-1.3-3.8-1.9l-9-3.7c-5.5-2.2-9.1-5.2-10.9-8.9c-1.9-3.7-2.8-8.3-2.8-13.9c0-3.2,0.4-6.4,1.3-9.4
					c0.8-2.8,2.2-5.4,4.1-7.7c1.8-2.2,4-4,6.6-5.2c3-1.4,6.3-2,9.6-1.9c3,0,5.9,0.6,8.6,1.7c2.5,1.1,4.8,2.7,6.8,4.6
					c3.6,3.6,5.7,8.5,5.7,13.7V66.9z"/>
				<path id="Path_4" class="st1" d="M471.7,129.9V41.4h12.6v40.4h0.3L503,41.4h12.6l-17.2,35.4l20.4,53.1h-13.4l-14.4-39.3
					l-6.8,12.8v26.5H471.7z"/>
				<path id="Path_5" class="st1" d="M544.2,129.9V41.4h12.1l16.2,46.9h0.3l16.1-46.9h12.2v88.5h-12.6V76.1h-0.3l-12.5,38h-6.3
					l-12.4-38h-0.3v53.8H544.2z"/>
				<path id="Path_6" class="st1" d="M626.5,129.9l19.7-88.5h10.5l19.7,88.5h-12.6l-3.7-19h-17.2l-3.7,19L626.5,129.9z M657.7,99
					l-6.2-32.1h-0.3L645.1,99H657.7z"/>
				<path id="Path_7" class="st1" d="M701.8,129.9V41.4h12.1l19,53.3h0.3V41.4h12.6v88.5h-11.9l-19.3-53.2h-0.3v53.2H701.8z"/>
				<path id="Path_8" class="st1" d="M812,104.7v5.5c0,2.7-0.5,5.3-1.6,7.8c-1,2.4-2.5,4.6-4.3,6.5c-1.8,1.9-4,3.4-6.4,4.5
					c-2.5,1.1-5.2,1.7-7.9,1.7c-2.5,0-4.9-0.3-7.3-1c-2.5-0.7-4.7-1.8-6.7-3.5c-2.1-1.8-3.7-3.9-4.9-6.4c-1.4-3.1-2.1-6.6-1.9-10
					V61.1c0-2.8,0.5-5.5,1.5-8.1c0.9-2.4,2.4-4.6,4.2-6.5c1.9-1.8,4.1-3.3,6.5-4.3c2.7-1.1,5.5-1.6,8.4-1.6c5.9,0,10.8,2,14.5,5.8
					c1.9,2,3.3,4.3,4.3,6.8c1.1,2.7,1.6,5.6,1.6,8.5v5h-12.6v-4.2c0.1-2.3-0.7-4.6-2.1-6.5c-1.3-1.8-3.5-2.8-5.7-2.7
					c-3.1,0-5.2,1-6.2,2.9c-1.1,2.3-1.6,4.8-1.6,7.4v45.2c-0.1,2.3,0.5,4.5,1.7,6.5c1.1,1.7,3.1,2.6,6,2.6c0.9,0,1.8-0.2,2.7-0.4
					c1-0.3,1.9-0.8,2.7-1.4c0.8-0.8,1.5-1.7,1.9-2.7c0.5-1.4,0.8-2.9,0.7-4.4v-4.4L812,104.7L812,104.7z"/>
				<path id="Path_9" class="st1" d="M837.4,129.9V41.4H875v11.9h-25v26h21.8v11.9H850v26h25v12.7H837.4z"/>
				<path id="Path_10" class="st1" d="M900.4,129.9V41.4h20.3c14.8,0,22.3,8.7,22.3,26c0.1,4.6-0.7,9.1-2.4,13.3
					c-1.8,3.8-4.7,6.9-8.5,8.8l13.6,40.4h-13.4l-11.7-37.8H913v37.8L900.4,129.9L900.4,129.9z M913,53.4V81h7.2
					c1.8,0.1,3.6-0.2,5.3-0.9c1.3-0.6,2.3-1.5,3.1-2.7c0.7-1.3,1.2-2.8,1.3-4.3c0.3-2,0.4-3.9,0.4-5.9c0-2-0.1-4-0.4-5.9
					c-0.2-1.6-0.7-3.1-1.5-4.4c-1.6-2.3-4.5-3.5-8.9-3.5L913,53.4L913,53.4z"/>
			</g>
		</g>
	</g>
</g>
</svg>
