<?xml version="1.0" encoding="utf-8"?>
<!-- Generator: Adobe Illustrator 24.0.2, SVG Export Plug-In . SVG Version: 6.00 Build 0)  -->
<svg version="1.1" id="圖層_1" xmlns="http://www.w3.org/2000/svg" xmlns:xlink="http://www.w3.org/1999/xlink" x="0px" y="0px"
	 viewBox="0 0 60 60" style="enable-background:new 0 0 60 60;" xml:space="preserve">
<style type="text/css">
	.st0{fill:#009198;}
	.st1{fill:#FAC300;}
</style>
<g>
	<polygon class="st0" points="30.6,56.6 30.6,56.6 30.6,56.6 	"/>
	<path class="st0" d="M31,3.3c-14.6-0.2-26.7,11.5-27,26c-0.2,9,4,16.9,10.6,21.9c1.7,1.3,2.7,3.2,2.7,5.3h4v-1.7v-4.3V28.8
		c2.5,0.4,4.8,1.5,6.7,3.1c-2,2.8-3.1,6.2-3.1,9.7c0,3.1,2.4,5.8,5.5,5.9c3.3,0.1,6-2.5,6-5.8c0-3.5-1.1-7-3.1-9.8
		c1.9-1.7,4.2-2.7,6.7-3.1v21.8v4.3v1.7h4c0-2.1,1-4.1,2.7-5.3c6.5-4.9,10.7-12.6,10.7-21.3C57.2,15.3,45.5,3.5,31,3.3 M30.6,43.5
		c-1,0-1.8-0.8-1.8-1.8c0-2.3,0.6-4.6,1.8-6.6c1.2,2,1.8,4.3,1.8,6.6C32.4,42.7,31.6,43.5,30.6,43.5 M43.9,48.3V24.6h-2
		c-4.2,0-8.1,1.5-11.2,4.2l-0.1-0.1l-0.1,0.1c-3.1-2.7-7.1-4.2-11.2-4.2h-2v23.6c-5.7-4.1-9.3-10.8-9.3-18.3
		c0-12.5,10.1-22.6,22.7-22.6s22.7,10.1,22.7,22.6C53.2,37.5,49.6,44.1,43.9,48.3"/>
	<path class="st1" d="M12.1,22.3c-1,2.4-1.5,4.9-1.5,7.6h2.3c0.4-2.3,1.2-4.4,2.3-6.4L12.1,22.3z"/>
	<path class="st1" d="M30.6,12.2V10c-6.9,0-13,3.5-16.6,8.9l3,2C20.2,16.4,25,13.3,30.6,12.2"/>
</g>
</svg>
