<svg width="192" height="37" viewBox="0 0 192 37" fill="none" xmlns="http://www.w3.org/2000/svg">
<g clip-path="url(#clip0_4628_1011)">
<path d="M18.54 -0.000424786C8.54778 -0.137486 0.226322 7.97523 0.0069966 18.0851C-0.128469 24.3051 2.76792 29.8398 7.30279 33.2924C8.45747 34.1735 9.1477 35.5376 9.1477 36.9996H11.8893V35.8313V32.829V17.6805C13.5858 17.9481 15.1727 18.6986 16.4628 19.8539C15.1017 21.8119 14.3535 24.1485 14.3276 26.5633C14.3083 28.7302 15.9661 30.5773 18.1078 30.6817C20.372 30.7861 22.2556 28.9521 22.2556 26.6743C22.2556 24.2202 21.5009 21.8445 20.1204 19.8539C21.4106 18.6986 22.9975 17.9481 24.694 17.6805V32.8355V35.8378V37.0061H27.4356C27.4356 35.5506 28.1193 34.18 29.2676 33.3054C33.7057 29.9311 36.5763 24.5596 36.5763 18.5094C36.5698 8.36684 28.5193 0.136636 18.54 -0.000424786ZM18.2884 27.9078C17.6175 27.9078 17.0692 27.3531 17.0692 26.6743C17.0692 25.0557 17.495 23.4827 18.2884 22.0991C19.0818 23.4762 19.5076 25.0557 19.5076 26.6743C19.5076 27.3531 18.9593 27.9078 18.2884 27.9078ZM27.4291 31.2169V14.8022H26.0616C23.2168 14.8022 20.4817 15.853 18.3594 17.7262L18.2949 17.6478L18.2239 17.7262C16.1016 15.853 13.3665 14.8022 10.5217 14.8022H9.15415V31.2169C5.27725 28.3582 2.75501 23.7242 2.75501 18.5028C2.75501 9.81577 9.71537 2.77996 18.3013 2.77996C26.8873 2.77996 33.8412 9.8223 33.8412 18.5028C33.8283 23.7307 31.306 28.3582 27.4291 31.2169Z" fill="white"/>
<path d="M5.6123 13.1905C4.94142 14.8287 4.57373 16.6235 4.57373 18.5032H6.12836C6.43155 16.9238 6.96696 15.4357 7.69589 14.0651L5.6123 13.1905Z" fill="white"/>
<path d="M18.2877 6.20038V4.62744C13.5335 4.62744 9.347 7.07496 6.88281 10.7952L8.90835 12.1658C11.1468 9.12435 14.4689 6.95096 18.2877 6.20038Z" fill="white"/>
<path d="M45.7163 28.5087V8.4978H50.2705C53.6056 8.4978 55.2699 10.4558 55.2699 14.3719C55.2699 15.5532 55.0892 16.5518 54.728 17.3807C54.3668 18.203 53.7346 18.8688 52.825 19.3779L55.8827 28.5153H52.8831L50.2447 19.9718H48.5482V28.5153H45.7163V28.5087ZM48.5482 11.1933V17.4329H50.1609C50.6576 17.4329 51.0575 17.3611 51.3543 17.224C51.651 17.0804 51.8832 16.8846 52.0509 16.617C52.1993 16.356 52.3025 16.0296 52.3541 15.6446C52.4122 15.2595 52.438 14.8157 52.438 14.3066C52.438 13.7975 52.4122 13.3537 52.3541 12.9686C52.2961 12.5835 52.1864 12.2507 52.0187 11.97C51.6639 11.4479 50.9995 11.1803 50.019 11.1803H48.5482V11.1933Z" fill="white"/>
<path d="M64.4173 8.4978H61.5854V28.5087H64.4173V8.4978Z" fill="white"/>
<path d="M79.8475 14.2544H77.0157V13.6082C77.0157 12.9556 76.8608 12.3878 76.5576 11.9113C76.2545 11.4348 75.7384 11.1934 75.0159 11.1934C74.6289 11.1934 74.3128 11.2652 74.0741 11.4153C73.8354 11.5654 73.6355 11.7547 73.4935 11.9766C73.3452 12.2181 73.242 12.4987 73.1904 12.8055C73.1323 13.1122 73.1065 13.4386 73.1065 13.7779C73.1065 14.1695 73.1194 14.5024 73.1517 14.7635C73.1775 15.0245 73.2484 15.2595 73.3581 15.4684C73.4677 15.6772 73.629 15.8534 73.8419 16.0036C74.0548 16.1537 74.345 16.3038 74.7192 16.4539L76.8866 17.322C77.5124 17.5634 78.0284 17.8506 78.4155 18.177C78.8025 18.5033 79.1121 18.8818 79.3315 19.3126C79.5379 19.7629 79.6734 20.272 79.7508 20.8464C79.8217 21.4207 79.8604 22.0669 79.8604 22.7979C79.8604 23.6398 79.7766 24.423 79.6089 25.1475C79.4411 25.8654 79.1767 26.4789 78.8025 26.988C78.4155 27.5102 77.9059 27.9279 77.2737 28.2281C76.6415 28.5283 75.8739 28.6785 74.9708 28.6785C74.287 28.6785 73.6484 28.5544 73.0549 28.313C72.4614 28.0715 71.9518 27.7321 71.5261 27.3013C71.1003 26.8706 70.7649 26.368 70.5133 25.8002C70.2617 25.2258 70.1392 24.6058 70.1392 23.9335V22.8631H72.971V23.7638C72.971 24.286 73.1259 24.7624 73.429 25.1867C73.7322 25.6109 74.2483 25.8197 74.9708 25.8197C75.4546 25.8197 75.8287 25.748 76.0932 25.6109C76.3641 25.4673 76.5706 25.2715 76.7189 25.0039C76.8673 24.7428 76.9576 24.4296 76.9834 24.0641C77.0092 23.6986 77.0286 23.2939 77.0286 22.8436C77.0286 22.3214 77.0092 21.8907 76.9705 21.5513C76.9318 21.2119 76.8608 20.9443 76.7447 20.7354C76.6157 20.5266 76.4415 20.3634 76.2287 20.2263C76.0158 20.0958 75.732 19.9588 75.3836 19.8021L73.3581 18.9602C72.1324 18.4576 71.3132 17.7854 70.9003 16.9499C70.481 16.1145 70.2746 15.0702 70.2746 13.8171C70.2746 13.0665 70.3778 12.3551 70.5778 11.6829C70.7842 11.0106 71.0874 10.4297 71.4938 9.94023C71.8809 9.45072 72.3776 9.06565 72.9775 8.77195C73.5774 8.48477 74.2999 8.33466 75.132 8.33466C75.8352 8.33466 76.4802 8.46519 77.0608 8.72626C77.6414 8.98733 78.151 9.33324 78.5767 9.76401C79.4282 10.6647 79.854 11.6959 79.854 12.8577V14.2544H79.8475Z" fill="white"/>
<path d="M85.5498 28.5087V8.49127H88.3817V17.6287H88.4397L92.5747 8.49127H95.413L91.549 16.5061L96.1355 28.5087H93.1359L89.9105 19.6259L88.3817 22.5237V28.5087H85.5498Z" fill="white"/>
<path d="M101.838 28.5087V8.49127H104.56L108.198 19.0907H108.256L111.862 8.49127H114.617V28.5087H111.785V16.3364H111.727L108.921 24.9386H107.502L104.728 16.3364H104.67V28.5087H101.838Z" fill="white"/>
<path d="M120.319 28.5087L124.738 8.4978H127.099L131.518 28.5087H128.686L127.854 24.2076H123.99L123.158 28.5087H120.319ZM127.318 21.5056L125.931 14.2544H125.873L124.487 21.5056H127.318Z" fill="white"/>
<path d="M137.22 28.5087V8.49127H139.942L144.219 20.5527H144.277V8.49127H147.109V28.5087H144.439L140.11 16.48H140.052V28.5087H137.22Z" fill="white"/>
<path d="M161.978 22.8044V24.0445C161.978 24.6645 161.862 25.2519 161.63 25.8002C161.398 26.3549 161.082 26.8444 160.669 27.2752C160.262 27.706 159.785 28.0454 159.237 28.2999C158.688 28.5544 158.101 28.6784 157.469 28.6784C156.934 28.6784 156.385 28.6067 155.831 28.4565C155.276 28.3064 154.773 28.0454 154.328 27.6668C153.883 27.2948 153.515 26.8118 153.231 26.2179C152.941 25.6305 152.799 24.8734 152.799 23.9531V12.936C152.799 12.2833 152.908 11.6698 153.134 11.1085C153.354 10.5472 153.67 10.0577 154.076 9.64652C154.482 9.23534 154.973 8.909 155.534 8.67404C156.102 8.43908 156.727 8.32159 157.411 8.32159C158.746 8.32159 159.83 8.76541 160.662 9.63999C161.069 10.0708 161.391 10.5798 161.623 11.1738C161.856 11.7612 161.972 12.4073 161.972 13.0992V14.2218H159.14V13.2689C159.14 12.7076 158.985 12.218 158.669 11.8069C158.353 11.3957 157.927 11.1868 157.392 11.1868C156.689 11.1868 156.218 11.4087 155.992 11.846C155.76 12.2898 155.644 12.8446 155.644 13.5169V23.7573C155.644 24.3382 155.766 24.8277 156.018 25.2193C156.269 25.6109 156.714 25.8067 157.366 25.8067C157.553 25.8067 157.753 25.7741 157.966 25.7088C158.179 25.6435 158.379 25.5391 158.566 25.389C158.734 25.2389 158.869 25.0365 158.985 24.7689C159.095 24.5079 159.153 24.1815 159.153 23.7834V22.7979H161.978V22.8044Z" fill="white"/>
<path d="M167.681 28.5087V8.49127H176.125V11.1933H170.519V17.0674H175.409V19.7629H170.519V25.6435H176.125V28.5087H167.681Z" fill="white"/>
<path d="M181.833 28.5087V8.4978H186.388C189.723 8.4978 191.387 10.4558 191.387 14.3719C191.387 15.5532 191.206 16.5518 190.845 17.3807C190.484 18.203 189.852 18.8688 188.942 19.3779L192 28.5153H189L186.362 19.9718H184.665V28.5153H181.833V28.5087ZM184.665 11.1933V17.4329H186.278C186.775 17.4329 187.175 17.3611 187.471 17.224C187.768 17.0804 188 16.8846 188.168 16.617C188.317 16.356 188.42 16.0296 188.471 15.6446C188.529 15.2595 188.555 14.8157 188.555 14.3066C188.555 13.7975 188.529 13.3537 188.471 12.9686C188.413 12.5835 188.304 12.2507 188.136 11.97C187.781 11.4479 187.117 11.1803 186.136 11.1803H184.665V11.1933Z" fill="white"/>
</g>
<defs>
<clipPath id="clip0_4628_1011">
<rect width="192" height="37" fill="white"/>
</clipPath>
</defs>
</svg>
