<svg width="318" height="60" viewBox="0 0 318 60" fill="none" xmlns="http://www.w3.org/2000/svg">
<g clip-path="url(#clip0_4628_982)">
<path d="M30.4166 0.000150804C14.0228 -0.222111 0.370239 12.9336 0.0104032 29.3281C-0.211849 39.4145 4.54011 48.3896 11.9802 53.9885C13.8747 55.4173 15.0071 57.6294 15.0071 60.0001H19.5051V58.1056V53.2371V28.6719C22.2885 29.1058 24.892 30.323 27.0087 32.1963C24.7756 35.3715 23.5479 39.1605 23.5056 43.0765C23.4738 46.5904 26.1938 49.5856 29.7075 49.755C33.4223 49.9243 36.5126 46.9502 36.5126 43.2565C36.5126 39.2769 35.2744 35.4244 33.0095 32.1963C35.1262 30.323 37.7297 29.1058 40.5131 28.6719V53.2476V58.1162V60.0107H45.0111C45.0111 57.6505 46.1329 55.4279 48.0168 54.0097C55.2982 48.5378 60.0078 39.8273 60.0078 30.016C59.9972 13.5687 46.7891 0.222412 30.4166 0.000150804ZM30.0038 45.2568C28.9031 45.2568 28.0035 44.3572 28.0035 43.2565C28.0035 40.6317 28.7021 38.0809 30.0038 35.8372C31.3056 38.0704 32.0041 40.6317 32.0041 43.2565C32.0041 44.3572 31.1045 45.2568 30.0038 45.2568ZM45.0005 50.6228V24.0044H42.7568C38.0895 24.0044 33.6022 25.7084 30.1202 28.746L30.0144 28.619L29.898 28.746C26.416 25.7084 21.9287 24.0044 17.2614 24.0044H15.0177V50.6228C8.65706 45.9871 4.51894 38.4725 4.51894 30.0054C4.51894 15.9183 15.9384 4.50888 30.025 4.50888C44.1115 4.50888 55.5204 15.9289 55.5204 30.0054C55.4993 38.4831 51.3612 45.9871 45.0005 50.6228Z" fill="#009299"/>
<path d="M9.20735 21.39C8.10667 24.0466 7.50342 26.9571 7.50342 30.0053H10.054C10.5514 27.444 11.4299 25.0309 12.6258 22.8083L9.20735 21.39Z" fill="#FBC400"/>
<path d="M30.004 10.0547V7.50397C22.204 7.50397 15.3353 11.4729 11.2925 17.5057L14.6157 19.7283C18.2881 14.7963 23.7386 11.2718 30.004 10.0547Z" fill="#FBC400"/>
<path d="M79.4711 59.9577H78C78.6244 58.7723 79.0478 57.5022 79.2912 56.1581H80.5294C80.3601 57.481 79.9897 58.7723 79.4711 59.9577ZM88.6998 54.6128C88.4776 54.8351 88.1707 54.9409 87.8637 54.9409H80.0214C79.6828 54.9409 79.3653 54.8139 79.143 54.6022C78.9208 54.38 78.7938 54.0519 78.7938 53.6603V49.215C78.7938 48.8446 78.9525 48.5588 79.2065 48.3789C79.4076 48.2307 79.6828 48.1461 79.9685 48.1461H87.705C88.1707 48.1461 88.5093 48.2942 88.7316 48.5588C88.9327 48.8023 89.0279 49.1304 89.0279 49.5431V53.7978C89.0491 54.1365 88.9115 54.4223 88.6998 54.6128ZM83.3446 49.0563H80.3813C80.159 49.0563 80.032 49.2044 80.032 49.3844V51.0249H83.3552V49.0563H83.3446ZM83.3446 51.9351H80.0214V53.692C80.0214 53.8719 80.159 54.0095 80.3178 54.0095H83.334V51.9351H83.3446ZM87.0488 59.9577H82.3075C81.9899 59.9577 81.7254 59.8201 81.5349 59.619C81.3444 59.3967 81.2174 59.111 81.2174 58.8146V55.8511H82.4768V58.6876C82.4768 58.9099 82.625 59.0263 82.8155 59.0263H87.3452L87.0488 59.9577ZM84.4136 58.1584C84.0749 57.3011 83.7468 56.4438 83.5986 55.4913H84.8263C85.0168 56.4332 85.3555 57.3329 85.8529 58.1584H84.4136ZM87.8426 49.395C87.8426 49.215 87.705 49.0563 87.4828 49.0563H84.5194V51.0249H87.8426V49.395ZM87.8426 51.9351H84.53V54.0095H87.5357C87.7156 54.0095 87.8532 53.8614 87.8532 53.6814V51.9351H87.8426ZM88.5305 59.9471C87.9273 58.7193 87.5463 57.4069 87.2076 56.084H88.4882C88.848 57.4493 89.3243 58.7511 90.0545 59.9471H88.5305Z" fill="#413D3C"/>
<path d="M96.8385 59.9788H95.7061C95.9071 59.0263 96.0871 57.354 96.0765 56.2004H97.156C97.1877 57.3964 97.0501 59.0475 96.8385 59.9788ZM97.2406 54.6975H98.9552C98.8599 54.3376 98.7117 53.5968 98.6694 53.1417H99.7701C99.9183 53.9672 100.141 54.888 100.479 55.65H99.2409C99.1562 55.4278 99.0398 55.0362 98.9869 54.8351L98.5742 55.65H96.6903C96.267 55.65 95.9706 55.5125 95.8436 55.3008C95.6955 55.0679 95.7378 54.7398 96.013 54.3694L97.8016 51.9774H96.6162C96.2776 51.9774 96.013 51.8187 95.8966 51.5647C95.7696 51.3318 95.7907 51.0143 96.0024 50.7497L98.0662 48.0085H99.5373L97.2301 51.099H98.4577L99.1139 50.2099H100.585L97.2406 54.6975ZM98.0344 59.9788C97.8016 59.0792 97.6428 57.5128 97.6428 56.2004H98.6482C98.6588 57.534 98.934 59.1533 99.1245 59.9788H98.0344ZM99.696 59.6613C99.4632 58.8993 99.2303 57.3117 99.1774 56.1898H100.204C100.246 57.2694 100.543 58.7723 100.818 59.6613H99.696ZM102.183 59.9788C101.855 59.9788 101.569 59.873 101.379 59.6825C101.178 59.4814 101.061 59.1956 101.061 58.8358V52.4749H99.9288C100.85 51.3107 101.59 49.5537 101.993 48.0297H103.263C103.125 48.6012 102.776 49.5961 102.49 50.3264H104.374C104.173 49.7548 103.908 48.707 103.824 48.0297H104.956C105.062 48.7811 105.284 49.7337 105.527 50.3264H107.464V51.2366H105.284V53.1628H107.2V54.0942H105.284V56.0205H107.21V56.9624H105.284V59.0686H107.623V60H102.183V59.9788ZM104.067 51.226H102.289V53.1522H104.067V51.226ZM104.067 54.073H102.289V55.9993H104.067V54.073ZM104.067 56.9413H102.289V58.6453C102.289 58.7829 102.352 58.8781 102.448 58.9416C102.543 59.0051 102.67 59.0369 102.786 59.0369H104.056V56.9413H104.067Z" fill="#413D3C"/>
<path d="M125.064 59.8942H124.366C123.974 59.8942 123.689 59.7883 123.498 59.5767C123.276 59.3438 123.202 59.0157 123.202 58.5924V49.7548C123.202 49.522 123.011 49.3209 122.789 49.3209H115.73C115.508 49.3209 115.317 49.5114 115.317 49.7337V53.6074C115.317 55.83 115.222 57.9256 114.555 59.8836H113.274C113.878 57.9891 114.089 56.0205 114.089 53.8931V49.7125C114.089 49.3421 114.238 49.014 114.47 48.7705C114.724 48.5165 115.095 48.3472 115.508 48.3472H122.874C123.392 48.3472 123.773 48.4953 124.017 48.7388C124.26 48.9822 124.387 49.3526 124.387 49.776V58.5712C124.387 58.8464 124.535 58.9628 124.768 58.9628H125.318L125.064 59.8942ZM121.942 59.6507C121.858 59.4708 121.741 59.1533 121.667 58.9628C119.878 59.1427 117.656 59.3332 115.56 59.4708V58.4759C116.725 58.4654 117.815 58.3913 118.64 58.3172V56.338H117.423C117.127 56.338 116.852 56.2533 116.651 56.0946C116.397 55.8935 116.227 55.576 116.227 55.1632V53.5227C116.227 53.1417 116.365 52.8453 116.587 52.6442C116.809 52.4537 117.095 52.3585 117.423 52.3585H118.651V51.2789C117.91 51.3212 116.587 51.3847 115.857 51.4059V50.4851C118.227 50.4216 120.334 50.2099 122.598 49.8183V50.8026C121.773 50.9402 120.588 51.0884 119.794 51.1519V52.3585H120.958C121.328 52.3585 121.667 52.4431 121.9 52.6125C122.154 52.7924 122.313 53.0782 122.313 53.4486V55.1949C122.313 55.5548 122.175 55.8194 121.974 56.0099C121.741 56.2322 121.413 56.3274 121.074 56.3274H119.804V58.2113C120.09 58.1796 121.021 58.1267 121.36 58.0843C121.275 57.7668 121.127 57.227 121.064 56.8249H122.249C122.471 57.8092 122.81 58.7405 123.223 59.6402H121.942V59.6507ZM118.651 53.2687H117.688C117.518 53.2687 117.402 53.4168 117.402 53.5862V55.0573C117.402 55.2584 117.54 55.3854 117.719 55.3854H118.661V53.2687H118.651ZM121.148 53.5439C121.148 53.4063 121.043 53.2687 120.82 53.2687H119.794V55.3854H120.831C121.053 55.3854 121.148 55.2902 121.148 55.0891V53.5439Z" fill="#413D3C"/>
<path d="M134.134 57.1C133.88 57.3223 133.531 57.4599 133.245 57.4599H132.642L132.261 56.6131H132.938C133.129 56.6131 133.256 56.5708 133.319 56.4967C133.414 56.4015 133.446 56.2321 133.457 56.0099C133.552 54.8351 133.129 53.5544 132.472 52.5595C132.853 51.4905 133.256 50.2628 133.372 49.3632C133.404 49.2362 133.309 49.1727 133.192 49.1727H132.345C132.218 49.1727 132.07 49.2891 132.07 49.4267V59.9788H130.959V49.2044C130.959 48.961 131.086 48.7176 131.245 48.5482C131.425 48.3895 131.647 48.2731 131.869 48.2731H133.668C133.944 48.2731 134.187 48.3789 134.335 48.5588C134.526 48.7599 134.61 49.0668 134.536 49.4161C134.346 50.411 133.933 51.5223 133.584 52.4643C134.24 53.5967 134.758 54.8668 134.568 56.2639C134.557 56.592 134.377 56.8777 134.134 57.1ZM141.31 59.9577C141.024 59.5131 140.685 58.7723 140.431 58.169C140.177 58.7828 139.775 59.566 139.5 59.9577H138.008C138.092 59.8518 138.304 59.5872 138.42 59.439H137.373C137.097 59.0051 136.896 58.5182 136.716 58.042C136.399 58.7088 136.06 59.3544 135.616 59.9471H134.007C135.129 58.8675 135.743 57.5339 136.134 56.1475H137.33L136.992 57.3328H137.658C137.859 57.9785 138.209 58.5606 138.6 59.1215C139.182 58.2219 139.553 57.2376 139.764 56.1475H140.95C140.907 56.5073 140.78 57.0365 140.706 57.3117H141.352C141.691 58.2536 142.23 59.1215 142.844 59.9471H141.31V59.9577ZM141.288 51.5223C140.727 50.8026 140.209 49.9665 139.828 49.2997C139.754 49.1727 139.606 49.0774 139.457 49.0774H137.679C137.531 49.0774 137.362 49.1515 137.298 49.2997C136.97 49.9453 136.314 50.8979 135.827 51.5223H134.261C135.097 50.6756 135.722 49.7019 136.304 48.7387C136.409 48.5588 136.558 48.4212 136.727 48.326C136.917 48.2201 137.14 48.1778 137.373 48.1778H139.817C140.092 48.1778 140.304 48.2413 140.473 48.3683C140.664 48.5059 140.802 48.6858 140.929 48.8763C141.511 49.8077 142.199 50.7497 142.918 51.5223H141.288ZM138.039 55.4701C137.859 55.65 137.627 55.7559 137.351 55.7559H135.827C135.637 55.7559 135.404 55.65 135.224 55.4701C135.076 55.3219 134.96 55.1102 134.96 54.8774V52.9935C134.96 52.7606 135.065 52.5489 135.235 52.3796C135.404 52.2208 135.616 52.1044 135.849 52.1044H137.373C137.648 52.1044 137.881 52.1997 138.029 52.3478C138.209 52.5278 138.304 52.7606 138.304 53.0252V54.8139C138.314 55.0891 138.198 55.3113 138.039 55.4701ZM137.235 53.2475C137.235 53.1099 137.087 52.9723 136.949 52.9723H136.378C136.23 52.9723 136.092 53.0993 136.092 53.2369V54.5916C136.092 54.7927 136.187 54.8774 136.346 54.8774H136.949C137.14 54.8774 137.235 54.7821 137.235 54.6234V53.2475ZM136.727 50.5592H140.346V51.4376H136.727V50.5592ZM141.987 55.4277C141.807 55.6077 141.564 55.7241 141.267 55.7241H139.733C139.51 55.7241 139.309 55.5971 139.161 55.4066C139.024 55.2267 138.928 54.9832 138.928 54.7292V53.0358C138.928 52.75 139.055 52.5066 139.246 52.3267C139.426 52.1785 139.669 52.0832 139.955 52.0832H141.246C141.5 52.0832 141.722 52.1467 141.892 52.2738C142.125 52.4537 142.252 52.7289 142.252 53.0781V54.7716C142.241 55.0256 142.146 55.2478 141.987 55.4277ZM141.14 53.2475C141.14 53.0993 141.003 52.9617 140.854 52.9617H140.294C140.156 52.9617 140.04 53.0887 140.04 53.2369V54.5599C140.04 54.761 140.167 54.8562 140.294 54.8562H140.854C141.024 54.8562 141.14 54.7716 141.14 54.6022V53.2475Z" fill="#413D3C"/>
<path d="M152.729 49.596C152.888 49.8924 153.153 50.3581 153.28 50.5698H151.798C151.692 50.3369 151.459 49.8606 151.332 49.5855H150.75C150.581 49.9136 150.369 50.2522 150.147 50.5698H148.581C149.279 49.8077 149.745 48.9081 150.168 48.019H151.502C151.438 48.1778 151.269 48.5694 151.184 48.7176H154.518V49.6066H152.729V49.596ZM158.201 49.596C158.349 49.8818 158.635 50.3157 158.794 50.5698H157.28C157.143 50.3369 156.92 49.9136 156.762 49.596H156.232C156.084 49.8501 155.841 50.2628 155.661 50.5698H155.036C155.1 50.8449 155.259 51.1836 155.375 51.4165H159.111C159.439 51.4165 159.725 51.5541 159.937 51.7763C160.116 51.9668 160.212 52.1997 160.212 52.4749V53.5227H158.942C159.048 53.7555 159.069 53.9672 159.069 54.1471L159.079 54.9091C159.079 55.1843 158.952 55.4278 158.762 55.5865C158.582 55.7453 158.338 55.8299 158.084 55.8299H150.697V56.6026H158.741C159.016 56.6026 159.259 56.6978 159.439 56.8672C159.63 57.0153 159.735 57.2376 159.735 57.4704V59.0263C159.735 59.3015 159.63 59.5131 159.439 59.6825C159.291 59.8095 159.069 59.873 158.825 59.873H150.454C150.21 59.873 149.967 59.746 149.766 59.5555C149.586 59.365 149.448 59.1004 149.448 58.8358V54.3165C149.448 54.0519 149.554 53.6285 149.692 53.4909H148.655V52.4114C148.655 52.1573 148.76 51.8822 148.972 51.6916C149.152 51.5329 149.427 51.4059 149.766 51.4059H153.798C153.703 51.173 153.565 50.7814 153.481 50.5063H154.158C154.782 49.7548 155.206 48.9081 155.566 48.0402H156.941C156.867 48.2201 156.719 48.5694 156.645 48.7282H160.349V49.6066H158.201V49.596ZM158.889 52.5913C158.889 52.4431 158.751 52.2949 158.55 52.2949H150.2C150.052 52.2949 149.914 52.3902 149.914 52.5807V53.2898C150.041 53.184 150.274 53.0676 150.433 53.0676H158.106C158.402 53.0676 158.709 53.1946 158.899 53.4592V52.5913H158.889ZM157.799 54.2318C157.799 54.073 157.672 53.946 157.524 53.946H151.057C150.856 53.946 150.687 54.1471 150.687 54.3376V54.9515H157.513C157.714 54.9515 157.799 54.8139 157.799 54.6551V54.2318ZM158.476 57.7774C158.476 57.5975 158.349 57.4916 158.19 57.4916H150.676V58.7193C150.676 58.8569 150.803 59.0157 150.941 59.0157H158.254C158.391 59.0157 158.476 58.9099 158.476 58.7723V57.7774Z" fill="#413D3C"/>
<path d="M166.054 59.3227V58.2114C166.498 58.0949 167.144 57.8621 167.482 57.7033V53.7132H166.255V52.8136H167.482V49.5537H165.979V48.6224H170.075V49.5537H168.678V52.8136H169.8V53.7238H168.678V57.1953C169.102 57.0048 169.684 56.7296 170.107 56.5285V57.6081C168.858 58.169 166.943 59.0051 166.054 59.3227ZM170.086 59.9789V59.0369H173.367V57.2271H170.604V56.3274H173.367V54.7187H172.181C171.726 54.7187 171.366 54.6128 171.112 54.3906C170.848 54.1683 170.721 53.8402 170.721 53.438V49.4267C170.721 49.0563 170.869 48.7494 171.112 48.5377C171.345 48.3366 171.652 48.2096 172.023 48.2096H176.013C176.394 48.2096 176.722 48.3472 176.944 48.5589C177.177 48.8023 177.283 49.1621 177.283 49.5432V53.5545C177.283 53.8826 177.124 54.2001 176.849 54.4117C176.605 54.6023 176.298 54.7081 175.96 54.7081H174.647V56.3063H177.441V57.2059H174.647V59.0157H177.949V59.9577H170.086V59.9789ZM173.367 49.1092H172.234C172.107 49.1092 171.938 49.2256 171.938 49.4056V51.0143H173.367V49.1092ZM173.367 51.9351H171.938V53.5545C171.938 53.6603 172.118 53.7873 172.213 53.7873H173.377V51.9351H173.367ZM176.065 49.4797C176.065 49.2892 175.938 49.1092 175.748 49.1092H174.647V51.0143H176.065V49.4797ZM176.065 51.9351H174.647V53.7873H175.716C175.991 53.7873 176.076 53.6603 176.076 53.4169V51.9351H176.065Z" fill="#413D3C"/>
<path d="M186.744 59.9576C186.469 59.9576 186.226 59.8306 186.056 59.6401C185.877 59.439 185.781 59.1533 185.781 58.8675V56.3909H185.347C185.305 57.4281 185.146 58.9628 184.839 59.9576H183.601C184.215 58.2431 184.215 56.1263 184.215 54.5705V49.9135C184.215 49.5854 184.321 49.3103 184.511 49.1198C184.702 48.9398 184.945 48.834 185.252 48.7917C186.427 48.6541 188.226 48.326 189.316 47.9979V49.088C188.342 49.3314 186.533 49.6172 185.623 49.7336C185.485 49.7442 185.358 49.8818 185.358 50.0194V50.3369H188.501C188.787 50.3369 189.02 50.4216 189.189 50.5909C189.348 50.7497 189.443 51.0037 189.443 51.3V52.1044C189.443 52.4219 189.316 52.6336 189.147 52.7924C188.925 52.9723 188.649 53.0464 188.406 53.0464H185.358V54.8456C185.358 55.1632 185.347 55.9252 185.347 56.2745C185.675 55.6288 186.004 54.3164 186.088 53.3639H187.157C187.115 53.6391 187.062 53.9883 187.009 54.2212H187.612C187.549 54.0307 187.422 53.6285 187.411 53.3639H188.438C188.491 53.5967 188.618 54.0201 188.692 54.2212H189.623V55.0573H188.649V55.8194H189.538V56.6343H188.649V57.4493H189.538V58.2854H188.649V59.1004H189.634V59.9365H186.744V59.9576ZM188.332 51.5011C188.332 51.3106 188.194 51.2048 188.046 51.2048H185.369V52.1785H188.046C188.215 52.1785 188.332 52.0515 188.332 51.861V51.5011ZM187.591 55.0785H186.84V55.8405H187.591V55.0785ZM187.591 56.6555H186.84V57.4704H187.591V56.6555ZM187.591 58.3066H186.84V58.8146C186.84 59.0051 187.009 59.1321 187.136 59.1321H187.591V58.3066ZM191.158 59.9576H189.687C190.068 59.492 190.597 58.5712 190.925 57.735H192.248C192.025 58.3912 191.549 59.3755 191.158 59.9576ZM193.306 49.215C193.211 49.5537 193.031 50.1464 192.914 50.4957H193.899C194.29 50.4957 194.597 50.6227 194.809 50.8238C194.999 51.046 195.105 51.3318 195.105 51.7128V56.1051C195.105 56.4226 195.01 56.6872 194.851 56.8883C194.661 57.1212 194.364 57.2376 193.962 57.2376H191.211C190.882 57.2376 190.597 57.1 190.406 56.8883C190.226 56.6978 190.12 56.4226 190.12 56.1369V51.5646C190.12 51.2365 190.269 50.9402 190.512 50.7285C190.713 50.5909 190.967 50.4957 191.274 50.4957H191.634C191.771 50.1993 191.962 49.5537 192.036 49.215H189.782V48.3365H195.433V49.215H193.306ZM193.941 51.7128C193.941 51.554 193.814 51.4165 193.624 51.4165H191.592C191.454 51.4165 191.306 51.5223 191.306 51.6916V52.369H193.941V51.7128ZM193.941 53.2581H191.306V54.4011H193.941V53.2581ZM193.941 55.3113H191.306V55.9993C191.306 56.2215 191.433 56.3485 191.623 56.3485H193.645C193.825 56.3485 193.941 56.211 193.941 56.0099V55.3113ZM194.1 59.9576C193.666 59.3755 193.19 58.3701 192.957 57.735H194.269C194.523 58.3595 195.126 59.3861 195.56 59.9576H194.1Z" fill="#413D3C"/>
<path d="M206.07 52.6971C205.869 52.93 205.541 53.0676 205.075 53.0676H202.45V59.9471H201.223V49.3315C201.223 48.961 201.36 48.6647 201.593 48.453C201.794 48.2731 202.069 48.1672 202.387 48.1672H205.181C205.562 48.1672 205.858 48.3154 206.07 48.5588C206.25 48.7811 206.345 49.0775 206.345 49.4161V51.8504C206.334 52.1891 206.26 52.4855 206.07 52.6971ZM205.107 49.4373C205.107 49.2468 204.916 49.0986 204.789 49.0986H202.778C202.588 49.0986 202.44 49.2362 202.44 49.4373V50.1464H205.096V49.4373H205.107ZM205.107 51.0778H202.45V52.1574H204.789C204.98 52.1574 205.117 52.0092 205.117 51.8081V51.0778H205.107ZM209.615 58.1584C209.382 58.4018 209.012 58.5183 208.546 58.5183H204.874C204.535 58.5183 204.25 58.3807 204.059 58.1584C203.869 57.9573 203.773 57.6716 203.773 57.3646V54.8563C203.773 54.4752 203.921 54.1895 204.165 53.999C204.387 53.8402 204.652 53.7449 204.959 53.7449H208.663C209.097 53.7449 209.446 53.8931 209.647 54.1365C209.827 54.3376 209.922 54.6234 209.922 54.9515V57.3223C209.912 57.6927 209.806 57.9679 209.615 58.1584ZM208.684 54.9938C208.684 54.8033 208.536 54.6552 208.324 54.6552H205.35C205.191 54.6552 205.001 54.8033 205.001 54.9727V57.2376C205.001 57.4387 205.149 57.5869 205.329 57.5869H208.335C208.525 57.5869 208.695 57.4387 208.695 57.2059V54.9938H208.684ZM212.145 59.6402C211.944 59.8624 211.626 59.9577 211.203 59.9577H209.7L209.382 59.0263H210.917C211.108 59.0263 211.245 58.8887 211.245 58.6559V53.0676H208.43C208.112 53.0676 207.848 52.9617 207.626 52.7501C207.425 52.549 207.298 52.2632 207.298 51.8822V49.2362C207.298 48.9187 207.425 48.6223 207.668 48.4213C207.858 48.2731 208.091 48.1778 208.377 48.1778H211.33C211.743 48.1778 212.039 48.3472 212.219 48.6012C212.388 48.8234 212.462 49.1092 212.462 49.4479V58.7194C212.452 59.1321 212.346 59.4391 212.145 59.6402ZM211.235 49.4479C211.235 49.2574 211.065 49.088 210.864 49.088H208.853C208.663 49.088 208.504 49.2256 208.504 49.4267V50.1358H211.235V49.4479ZM211.235 51.0778H208.504V51.8187C208.504 52.0092 208.642 52.1574 208.853 52.1574H211.235V51.0778Z" fill="#413D3C"/>
<path d="M222.559 59.6719C222.336 59.8942 221.998 60 221.617 60H220.59L220.199 59.0898H221.289C221.49 59.0898 221.638 59.0051 221.638 58.804V55.6077H219.712C219.669 57.0894 219.606 58.6135 219.331 60H218.103C218.421 58.7934 218.526 57.4916 218.526 56.1898V49.3738C218.526 49.0774 218.653 48.7811 218.865 48.5906C219.045 48.4318 219.299 48.3366 219.616 48.3366H221.723C222.04 48.3366 222.294 48.4318 222.485 48.58C222.717 48.7705 222.844 49.0563 222.844 49.395V58.9099C222.844 59.238 222.739 59.5026 222.559 59.6719ZM221.648 52.3902H219.722C219.722 52.9935 219.722 54.126 219.733 54.6869H221.648V52.3902ZM221.648 49.5326C221.648 49.395 221.553 49.2891 221.405 49.2891H219.987C219.839 49.2891 219.743 49.395 219.743 49.5326V51.4482H221.659V49.5326H221.648ZM228.263 60C227.713 59.5449 227.057 58.9628 226.602 58.4759C226.019 59.0051 225.384 59.5237 224.771 60H222.728C223.797 59.3226 224.876 58.5818 225.829 57.6504C225.12 56.7931 224.506 55.904 224.019 54.9621H225.3C225.66 55.6077 226.104 56.2321 226.612 56.8143C227.194 56.1369 227.787 55.396 228.126 54.6869C228.157 54.6128 228.083 54.507 227.999 54.507H223.342V53.5756H228.432C228.782 53.5756 229.057 53.7132 229.205 53.946C229.396 54.2212 229.406 54.6022 229.216 55.015C228.824 55.8511 228.02 56.9307 227.364 57.6504C228.242 58.55 229.343 59.365 230.327 60H228.263ZM229.586 53.057H228.316C227.999 53.057 227.745 52.9617 227.565 52.7818C227.385 52.623 227.289 52.369 227.289 52.0409V49.5008C227.289 49.395 227.194 49.2256 226.993 49.2256H225.564C225.384 49.2256 225.279 49.395 225.279 49.522C225.31 50.4745 225.342 51.9139 224.474 53.0676H223.067C224.157 52.0727 224.114 50.6121 224.104 49.1621C224.104 48.9293 224.199 48.7282 224.358 48.5588C224.538 48.3789 224.771 48.2731 225.046 48.2731H227.258C227.618 48.2731 227.903 48.3683 228.104 48.5271C228.337 48.7176 228.454 49.0139 228.454 49.3738V51.7869C228.454 51.9351 228.581 52.0727 228.708 52.0727H230.083L229.586 53.057Z" fill="#413D3C"/>
<path d="M237.788 52.0409H238.392V59.9471H237.132V52.496H235.989C237.09 51.1519 237.788 49.6278 238.339 48.0402H239.715C239.175 49.4055 238.582 50.8026 237.788 52.0409ZM246.922 53.5227C247.06 53.6814 247.155 54.0413 247.155 54.2212V58.6135C247.155 59.0792 246.975 59.4073 246.7 59.619C246.425 59.8412 246.054 59.9471 245.663 59.9471H243.821L243.366 58.9522H245.588C245.768 58.9522 245.906 58.8146 245.906 58.6241V54.3482C245.906 54.1471 245.737 53.9778 245.578 53.9778H243.038C242.72 56.1157 242.339 58.2325 241.006 59.9471H239.408C240.974 58.3278 241.524 56.1792 241.778 53.9778H239.937V53.5121H238.656C240 51.861 240.826 49.9771 241.471 48.0402H242.837C242.212 49.776 241.524 51.48 240.487 53.0252H246.054C246.16 53.0252 246.287 53.057 246.393 53.0993C245.43 51.4694 244.773 49.9771 244.128 48.0508H245.43C246.107 50.03 247.282 52.3479 248.213 53.5227H246.922Z" fill="#413D3C"/>
<path d="M258.5 50.4322C258.204 50.9085 257.569 51.8293 257.23 52.2632H263.58C263.972 52.2632 264.289 52.4008 264.522 52.6336C264.765 52.8771 264.913 53.2369 264.913 53.6391V58.8252C264.913 59.2062 264.755 59.5026 264.501 59.6931C264.257 59.8836 263.94 59.9894 263.601 59.9894H261.664L261.146 59.058H263.262C263.485 59.058 263.633 58.9204 263.633 58.7194V57.5551H256.521V59.9894H255.24V54.3376H253.875C255.018 53.1946 256.288 51.7763 257.124 50.4216H254.076V49.4479H257.664C257.844 49.1515 258.214 48.453 258.384 48.0402H259.717C259.516 48.4953 259.241 49.088 259.019 49.4479H265.665V50.4216H258.5V50.4322ZM263.633 53.5333C263.633 53.3533 263.474 53.1946 263.294 53.1946H256.902C256.743 53.1946 256.521 53.3533 256.521 53.565V54.4117H263.633V53.5333ZM263.633 55.3325H256.521V56.6555H263.633V55.3325Z" fill="#413D3C"/>
<path d="M275.116 57.1953C274.873 57.3541 274.545 57.4599 274.185 57.4599H273.179L272.798 56.4756H273.772C273.994 56.4756 274.153 56.4544 274.28 56.3486C274.386 56.2639 274.471 56.1475 274.502 55.9358C274.672 54.888 273.878 53.2793 273.285 52.4008C273.698 51.4271 274.079 50.4216 274.333 49.3844C274.365 49.268 274.28 49.141 274.153 49.141H272.788C272.65 49.141 272.544 49.2786 272.544 49.4161V59.9577H271.338V49.1939C271.338 48.8975 271.465 48.6118 271.687 48.4001C271.878 48.2413 272.142 48.1461 272.449 48.1461H274.534C274.852 48.1461 275.148 48.2731 275.338 48.4742C275.529 48.6753 275.624 48.9822 275.54 49.3209C275.307 50.3158 274.968 51.3636 274.555 52.3373C275.254 53.565 275.963 54.9727 275.635 56.4756C275.582 56.7508 275.391 57.0154 275.116 57.1953ZM281.974 53.7661C281.752 53.946 281.445 54.0625 281.032 54.0625H277.328V58.5712C277.328 58.8676 277.508 58.9946 277.762 58.9946H279.985L279.434 59.9471H277.296C276.958 59.9471 276.672 59.8201 276.46 59.619C276.227 59.3862 276.111 59.0475 276.111 58.677V49.1621C276.111 48.8764 276.302 48.5694 276.587 48.3683C276.788 48.2202 277.053 48.1355 277.339 48.1355H281.096C281.487 48.1355 281.794 48.2625 282.017 48.4636C282.249 48.6964 282.366 49.014 282.366 49.3526V52.8665C282.366 53.2158 282.228 53.5439 281.974 53.7661ZM281.138 49.395C281.138 49.2151 281.001 49.0563 280.768 49.0563H277.677C277.455 49.0563 277.318 49.2468 277.318 49.4161V50.591H281.128V49.395H281.138ZM281.138 51.5118H277.328V53.1417H280.799C281.022 53.1417 281.138 53.0041 281.138 52.8136V51.5118ZM281.434 59.9471C279.889 58.3489 278.894 56.5391 278.196 54.5811H279.424C279.646 55.1314 279.9 55.7136 280.207 56.2322C280.662 55.7241 281.022 55.142 281.35 54.5705H282.8C282.419 55.269 281.921 56.0205 281.35 56.6873H280.45C281.128 57.8515 282.101 59.0051 283.212 59.9471H281.434Z" fill="#413D3C"/>
<path d="M290.589 53.4063H288.864C290.377 51.7869 291.393 49.903 291.975 48.0297H293.351C292.748 49.8924 291.742 51.9457 290.589 53.4063ZM298.558 59.9365C298.452 59.746 298.188 59.3756 298.05 59.1427L297.669 59.9365H290.663C290.271 59.9365 290.039 59.746 289.954 59.4814C289.89 59.2803 289.912 59.0157 290.06 58.7829L293.817 52.242H295.341L291.531 58.8358C291.499 58.8887 291.52 58.9628 291.573 58.9628H297.923C297.267 57.8832 296.42 56.3698 296.05 55.1844H297.426C298.04 56.8884 298.982 58.4865 300.199 59.9365H298.558ZM299.087 53.4063C297.754 51.7975 296.77 49.8818 296.124 48.0297H297.489C298.103 49.8289 299.278 51.9351 300.802 53.4063H299.087Z" fill="#413D3C"/>
<path d="M306.464 50.6544H315.502V51.607H306.464V50.6544ZM317.629 59.566C317.375 59.8306 316.984 59.9576 316.56 59.9576H314.2L313.724 58.9839H316.328C316.55 58.9839 316.73 58.8252 316.73 58.5711V49.6172C316.73 49.4161 316.55 49.2468 316.328 49.2468H307.057V48.2625H316.624C317.016 48.2625 317.344 48.4106 317.576 48.6435C317.841 48.8869 317.989 49.2468 317.989 49.5749V58.6558C318 59.0368 317.862 59.3438 317.629 59.566ZM314.423 57.7562C314.179 57.9996 313.809 58.116 313.396 58.116H308.316C308.02 58.116 307.702 57.9361 307.48 57.6609C307.321 57.4598 307.226 57.1952 307.226 56.8989V53.9354C307.226 53.6496 307.363 53.3639 307.596 53.1628C307.819 52.9723 308.115 52.8453 308.475 52.8453H313.555C313.883 52.8453 314.137 52.9405 314.348 53.1205C314.624 53.3427 314.772 53.6814 314.772 54.0518V56.8777C314.772 57.2588 314.645 57.5445 314.423 57.7562ZM313.565 54.1365C313.565 53.9883 313.407 53.7978 313.248 53.7978H308.835C308.633 53.7978 308.443 53.9672 308.443 54.1683V56.7719C308.443 56.973 308.623 57.1635 308.76 57.1635H313.248C313.417 57.1635 313.565 57.0153 313.565 56.846V54.1365Z" fill="#413D3C"/>
<path d="M78 35.7312V3.27045H85.4719C90.9435 3.27045 93.674 6.44561 93.674 12.7959C93.674 14.7116 93.3777 16.331 92.785 17.6751C92.1924 19.0087 91.1552 20.0882 89.6629 20.9138L94.6795 35.7312H89.7582L85.4296 21.8769H82.6461V35.7312H78ZM82.6461 7.65217V17.7704H85.292C86.1069 17.7704 86.7631 17.6539 87.2499 17.4317C87.7368 17.1988 88.1177 16.8813 88.3929 16.4474C88.6363 16.024 88.8057 15.4948 88.8903 14.8704C88.9856 14.2459 89.0279 13.5262 89.0279 12.7007C89.0279 11.8751 88.9856 11.1554 88.8903 10.531C88.7951 9.90654 88.6152 9.36676 88.34 8.91165C87.7579 8.06494 86.6678 7.631 85.0591 7.631H82.6461V7.65217Z" fill="#009299"/>
<path d="M108.681 3.27045H104.035V35.7206H108.681V3.27045Z" fill="#009299"/>
<path d="M133.997 12.616H129.351V11.5682C129.351 10.5098 129.097 9.58897 128.599 8.81635C128.102 8.04372 127.255 7.65212 126.07 7.65212C125.435 7.65212 124.916 7.76854 124.525 8.01197C124.133 8.2554 123.805 8.56233 123.572 8.92219C123.329 9.31379 123.159 9.7689 123.075 10.2663C122.979 10.7638 122.937 11.293 122.937 11.8433C122.937 12.4784 122.958 13.0181 123.001 13.4415C123.043 13.8649 123.159 14.2459 123.339 14.5846C123.519 14.9232 123.784 15.209 124.133 15.4524C124.482 15.6959 124.958 15.9393 125.572 16.1827L129.128 17.5904C130.155 17.982 131.002 18.4477 131.637 18.9769C132.272 19.5061 132.78 20.1199 133.139 20.8185C133.478 21.5488 133.7 22.3743 133.827 23.3057C133.944 24.2371 134.007 25.2849 134.007 26.4703C134.007 27.8356 133.87 29.1056 133.595 30.2805C133.319 31.4447 132.885 32.4396 132.272 33.2651C131.637 34.1118 130.801 34.7892 129.763 35.276C128.726 35.7629 127.467 36.0063 125.985 36.0063C124.863 36.0063 123.815 35.8052 122.842 35.4136C121.868 35.022 121.032 34.4717 120.334 33.7731C119.635 33.0746 119.085 32.2596 118.672 31.3388C118.259 30.4075 118.058 29.402 118.058 28.3118V26.5655H122.704V28.0261C122.704 28.8728 122.958 29.6454 123.456 30.3334C123.953 31.0213 124.8 31.36 125.985 31.36C126.779 31.36 127.393 31.2436 127.827 31.0213C128.271 30.7885 128.61 30.471 128.853 30.037C129.097 29.6137 129.245 29.1056 129.287 28.5129C129.329 27.9202 129.361 27.264 129.361 26.5338C129.361 25.687 129.329 24.9885 129.266 24.4382C129.202 23.8878 129.086 23.4538 128.896 23.1152C128.684 22.7765 128.398 22.5119 128.049 22.2896C127.7 22.0779 127.234 21.8557 126.662 21.6017L123.339 20.2364C121.328 19.4214 119.984 18.3313 119.307 16.9765C118.619 15.6218 118.28 13.9284 118.28 11.8963C118.28 10.6791 118.45 9.52547 118.778 8.43533C119.116 7.34519 119.614 6.40322 120.281 5.60943C120.916 4.81564 121.731 4.19119 122.715 3.71492C123.699 3.24923 124.884 3.0058 126.25 3.0058C127.403 3.0058 128.462 3.21748 129.414 3.64083C130.367 4.06419 131.203 4.62513 131.901 5.32367C133.298 6.78424 133.997 8.4565 133.997 10.3404V12.616Z" fill="#009299"/>
<path d="M143.353 35.7312V3.27045H148.009V18.0879H148.094L154.888 3.27045H159.535L153.195 16.2674L160.72 35.7312H155.799L150.518 21.3265L148.009 26.0152V35.7312H143.353Z" fill="#009299"/>
<path d="M170.076 35.7312V3.27045H174.542L180.511 20.4587H180.606L186.533 3.27045H191.041V35.7312H186.395V15.9923H186.3L181.696 29.9418H179.379L174.817 15.9923H174.732V35.7312H170.076Z" fill="#009299"/>
<path d="M200.397 35.7312L207.647 3.28101H211.52L218.77 35.7312H214.124L212.758 28.7564H206.419L205.054 35.7312H200.397ZM211.891 24.3747L209.615 12.616H209.52L207.244 24.3747H211.891Z" fill="#009299"/>
<path d="M228.125 35.7312V3.27045H232.592L239.608 22.8295H239.704V3.27045H244.35V35.7312H239.979L232.867 16.2145H232.772V35.7312H228.125Z" fill="#009299"/>
<path d="M268.756 26.4703V28.4812C268.756 29.4867 268.565 30.4392 268.184 31.3283C267.803 32.2279 267.284 33.0217 266.607 33.7202C265.94 34.4188 265.157 34.9691 264.258 35.3819C263.358 35.7947 262.395 35.9958 261.358 35.9958C260.479 35.9958 259.58 35.8793 258.67 35.6359C257.759 35.3925 256.934 34.9691 256.204 34.3553C255.473 33.752 254.87 32.9688 254.404 32.0056C253.928 31.0531 253.695 29.8254 253.695 28.333V10.478C253.695 9.40907 253.875 8.42477 254.246 7.51455C254.605 6.60434 255.124 5.81055 255.791 5.14377C256.458 4.47698 257.262 3.94779 258.183 3.56677C259.114 3.18575 260.141 2.99524 261.262 2.99524C263.453 2.99524 265.231 3.71494 266.596 5.13318C267.263 5.83172 267.792 6.65726 268.173 7.62039C268.554 8.57294 268.745 9.62075 268.745 10.7426V12.5631H264.099V11.0178C264.099 10.1076 263.845 9.31381 263.326 8.64703C262.808 7.98025 262.109 7.64156 261.231 7.64156C260.077 7.64156 259.305 8.00141 258.934 8.71053C258.553 9.43024 258.363 10.3299 258.363 11.42V28.0155C258.363 28.9575 258.564 29.7513 258.976 30.3863C259.389 31.0213 260.119 31.3389 261.188 31.3389C261.495 31.3389 261.823 31.2859 262.173 31.1801C262.522 31.0743 262.85 30.9049 263.157 30.6615C263.432 30.4181 263.654 30.09 263.845 29.656C264.025 29.2327 264.12 28.7035 264.12 28.0579V26.4597H268.756V26.4703Z" fill="#009299"/>
<path d="M278.111 35.7312V3.27045H291.965V7.65217H282.757V17.1777H290.78V21.5488H282.757V31.0743H291.965V35.7312H278.111Z" fill="#009299"/>
<path d="M301.32 35.7312V3.27045H308.792C314.264 3.27045 316.994 6.44561 316.994 12.7959C316.994 14.7116 316.698 16.331 316.105 17.6751C315.513 19.0087 314.476 20.0882 312.983 20.9138L318 35.7312H313.079L308.75 21.8769H305.966V35.7312H301.32ZM305.966 7.65217V17.7704H308.612C309.427 17.7704 310.083 17.6539 310.57 17.4317C311.057 17.1988 311.438 16.8813 311.713 16.4474C311.957 16.024 312.126 15.4948 312.211 14.8704C312.306 14.2459 312.348 13.5262 312.348 12.7007C312.348 11.8751 312.306 11.1554 312.211 10.531C312.115 9.90654 311.936 9.36676 311.66 8.91165C311.078 8.06494 309.988 7.631 308.379 7.631H305.966V7.65217Z" fill="#009299"/>
</g>
<defs>
<clipPath id="clip0_4628_982">
<rect width="318" height="60" fill="white"/>
</clipPath>
</defs>
</svg>
